<?xml version="1.0" encoding="iso-8859-1"?>
<!-- Generator: Adobe Illustrator 19.0.0, SVG Export Plug-In . SVG Version: 6.00 Build 0)  -->
<svg version="1.1" id="Capa_1" xmlns="http://www.w3.org/2000/svg" xmlns:xlink="http://www.w3.org/1999/xlink" x="0px" y="0px"
	 viewBox="0 0 511.993 511.993" style="enable-background:new 0 0 511.993 511.993;" xml:space="preserve">
<path style="fill:#962E09;" d="M480.572,511.993c-4.74,0-9.17-2.973-10.801-7.705l-80.112-232.417
	c-2.056-5.966,1.113-12.469,7.078-14.526c5.967-2.057,12.47,1.113,14.525,7.078l80.112,232.417
	c2.056,5.966-1.113,12.47-7.078,14.526C483.062,511.79,481.806,511.993,480.572,511.993z"/>
<path style="fill:#414B82;" d="M340.653,511.987c-13.558,0.001-24.832-10.689-25.423-24.366l-5.143-119.017l-34.09-92.945
	c-4.844-13.204,1.935-27.835,15.138-32.677c13.205-4.843,27.835,1.935,32.677,15.139l35.453,96.661
	c0.903,2.462,1.421,5.049,1.534,7.67l5.315,122.971c0.608,14.051-10.291,25.934-24.342,26.541
	C341.398,511.979,341.024,511.987,340.653,511.987z"/>
<path style="fill:#343E6B;" d="M342.216,109.637l-54.39-9.326c-16.845-2.889-32.841,8.425-35.729,25.27
	c-29.349,171.16-26.601,155.119-26.832,156.484l-3.373,87.251L177.6,476.819c-5.357,13.004,0.84,27.889,13.845,33.246
	c3.174,1.307,6.459,1.927,9.691,1.927c10.01,0,19.506-5.941,23.555-15.771l45.973-111.584c1.112-2.699,1.752-5.569,1.891-8.486
	l4.074-85.281l64.025,10.979l26.832-156.483C370.373,128.522,359.06,112.526,342.216,109.637z"/>
<path style="fill:#64AFFF;" d="M340.653,301.849l-115.389-19.786l26.832-156.484c2.889-16.845,18.885-28.158,35.729-25.27
	l54.39,9.326c16.845,2.889,28.158,18.885,25.27,35.729L340.653,301.849z"/>
<circle style="fill:#FFB69E;" cx="339.842" cy="45.808" r="45.808"/>
<path style="fill:#FFB69E;" d="M400.445,277.339c-3.063,0-6.173-0.694-9.099-2.157l-78.222-39.13
	c-5.12-2.562-8.927-7.16-10.487-12.668l-24.779-87.49c-3.066-10.825,3.224-22.087,14.05-25.153
	c10.826-3.066,22.087,3.224,25.153,14.05l22.329,78.842l70.184,35.109c10.062,5.034,14.139,17.272,9.106,27.334
	C415.11,273.213,407.916,277.339,400.445,277.339z"/>
<path style="fill:#78BEFF;" d="M294.363,194.169l38.947-12.004l-16.249-57.374c-3.066-10.825-14.326-17.117-25.153-14.05
	c-10.825,3.066-17.116,14.327-14.05,25.153L294.363,194.169z"/>
<path style="fill:#50374B;" d="M200.04,511.989c-12.186,0-22.802-9.002-24.493-21.415l-15.871-116.592l-35.647-91.197
	c-4.976-12.731,1.31-27.086,14.042-32.062c12.731-4.977,27.086,1.31,32.062,14.042l36.722,93.946
	c0.714,1.826,1.208,3.73,1.473,5.672l16.269,119.515c1.844,13.544-7.641,26.018-21.185,27.862
	C202.276,511.915,201.152,511.989,200.04,511.989z"/>
<path style="fill:#695A6E;" d="M44.739,511.993c-3.141,0-6.335-0.602-9.419-1.873c-12.638-5.208-18.663-19.673-13.455-32.312
	l43.02-104.414l3.536-87.25c0.571-13.657,12.106-24.269,25.763-23.694c13.657,0.572,24.265,12.107,23.694,25.763l-3.719,91.61
	c-0.12,2.884-0.745,5.725-1.845,8.394L67.632,496.665C63.695,506.218,54.467,511.993,44.739,511.993z"/>
<path style="fill:#FF3C3C;" d="M181.852,294.709H68.069V140.403c0-16.61,13.465-30.075,30.075-30.075h53.633
	c16.61,0,30.075,13.465,30.075,30.075L181.852,294.709L181.852,294.709z"/>
<circle style="fill:#BA6746;" cx="132.121" cy="50.757" r="44.526"/>
<path style="fill:#BA6746;" d="M208.223,191.611c-4.841,1.872-10.238,1.772-15.024-0.306l-81.067-35.193
	c-10.031-4.354-14.632-16.016-10.278-26.047c4.354-10.03,16.017-14.632,26.047-10.278l73.054,31.715l69.599-31.198
	c9.958-4.46,21.694-0.01,26.166,9.969c4.473,9.979,0.01,21.694-9.969,26.167l-77.57,34.772
	C208.866,191.354,208.546,191.486,208.223,191.611z"/>
<path style="fill:#FF4F38;" d="M167.815,137.115l-39.913-17.327c-10.03-4.355-21.693,0.247-26.047,10.278
	c-4.354,10.03,0.247,21.692,10.278,26.047l42.2,18.32L167.815,137.115z"/>
<g>
</g>
<g>
</g>
<g>
</g>
<g>
</g>
<g>
</g>
<g>
</g>
<g>
</g>
<g>
</g>
<g>
</g>
<g>
</g>
<g>
</g>
<g>
</g>
<g>
</g>
<g>
</g>
<g>
</g>
</svg>
